name Visual3d_SIMM_grf.mot
datacolumns 19
datarows 44
range 0.730000 1.160000
endheader
time	ground_force_vx	ground_force_vy	ground_force_vz	ground_force_px	ground_force_py	ground_force_pz	l_ground_force_vx	l_ground_force_vy	l_ground_force_vz	l_ground_force_px	l_ground_force_py	l_ground_force_pz	ground_torque_x	ground_torque_y	ground_torque_z	l_ground_torque_x	l_ground_torque_y	l_ground_torque_z
0.730000	62.247036	186.861374	6.142365	-0.178379	-0.002248	0.203174	-16.750311	125.360580	-7.679689	0.292802	-0.002775	0.221164	-0.001408	1.548410	-0.003466	-0.000048	-0.006899	0.000123
0.740000	52.468109	144.581238	6.758516	-0.176992	-0.003456	0.202188	-26.831903	167.597290	-8.628615	0.297802	-0.003784	0.221653	-0.001229	1.351821	-0.003026	-0.000223	-0.032189	0.000573
0.750000	41.019276	103.828117	6.543423	-0.176640	-0.004080	0.200511	-38.133247	210.556213	-8.899971	0.303248	-0.004527	0.221551	-0.001030	1.132577	-0.002535	-0.000287	-0.041482	0.000738
0.760000	29.310638	67.964478	5.614762	-0.176784	-0.004267	0.198210	-49.074001	253.064423	-8.788317	0.308916	-0.004955	0.220898	-0.000826	0.908632	-0.002034	-0.000138	-0.019894	0.000354
0.770000	18.783146	39.308125	4.304755	-0.177026	-0.004102	0.195271	-58.374813	293.522705	-8.771770	0.314540	-0.005076	0.219892	-0.000639	0.703510	-0.001575	0.000277	0.039930	-0.000710
0.780000	0.000000	0.000000	0.000000	0.000000	0.000000	0.000000	-65.221909	329.809357	-9.078881	0.319915	-0.004953	0.218783	0.000000	0.000000	0.000000	0.000898	0.129588	-0.002305
0.790000	0.000000	0.000000	0.000000	0.000000	0.000000	0.000000	-69.123314	359.884735	-9.507133	0.324893	-0.004677	0.217787	0.000000	0.000000	0.000000	0.001589	0.229478	-0.004082
0.800000	0.000000	0.000000	0.000000	0.000000	0.000000	0.000000	-69.991844	381.896149	-9.836686	0.329421	-0.004338	0.217036	0.000000	0.000000	0.000000	0.002252	0.325143	-0.005784
0.810000	0.000000	0.000000	0.000000	0.000000	0.000000	0.000000	-68.095528	394.697479	-9.969431	0.333553	-0.004004	0.216555	0.000000	0.000000	0.000000	0.002809	0.405612	-0.007215
0.820000	0.000000	0.000000	0.000000	0.000000	0.000000	0.000000	-63.961643	398.004059	-9.803475	0.337426	-0.003715	0.216270	0.000000	0.000000	0.000000	0.003188	0.460333	-0.008189
0.830000	0.000000	0.000000	0.000000	0.000000	0.000000	0.000000	-58.227776	392.236389	-9.220743	0.341221	-0.003490	0.216058	0.000000	0.000000	0.000000	0.003361	0.485179	-0.008631
0.840000	0.000000	0.000000	0.000000	0.000000	0.000000	0.000000	-51.547276	378.412567	-8.143773	0.345132	-0.003333	0.215788	0.000000	0.000000	0.000000	0.003335	0.481553	-0.008566
0.850000	0.000000	0.000000	0.000000	0.000000	0.000000	0.000000	-44.493782	358.034698	-6.552095	0.349328	-0.003238	0.215359	0.000000	0.000000	0.000000	0.003145	0.454015	-0.008076
0.860000	0.000000	0.000000	0.000000	0.000000	0.000000	0.000000	-37.479206	333.003967	-4.487970	0.353918	-0.003196	0.214710	0.000000	0.000000	0.000000	0.002841	0.410100	-0.007295
0.870000	0.000000	0.000000	0.000000	0.000000	0.000000	0.000000	-30.778385	305.392792	-2.065413	0.358935	-0.003192	0.213836	0.000000	0.000000	0.000000	0.002478	0.357702	-0.006363
0.880000	0.000000	0.000000	0.000000	0.000000	0.000000	0.000000	-24.542965	277.172638	0.524989	0.364335	-0.003209	0.212778	0.000000	0.000000	0.000000	0.002096	0.302611	-0.005383
0.890000	0.000000	0.000000	0.000000	0.000000	0.000000	0.000000	-18.815273	250.028748	3.053674	0.369998	-0.003227	0.211594	0.000000	0.000000	0.000000	0.001714	0.247417	-0.004401
0.900000	0.000000	0.000000	0.000000	0.000000	0.000000	0.000000	-13.589419	225.274567	5.316453	0.375750	-0.003225	0.210357	0.000000	0.000000	0.000000	0.001327	0.191533	-0.003407
0.910000	0.000000	0.000000	0.000000	0.000000	0.000000	0.000000	-8.870756	203.819351	7.172387	0.381405	-0.003184	0.209149	0.000000	0.000000	0.000000	0.000911	0.131550	-0.002340
0.920000	0.000000	0.000000	0.000000	0.000000	0.000000	0.000000	-4.688509	186.203079	8.550190	0.386810	-0.003087	0.208062	0.000000	0.000000	0.000000	0.000435	0.062757	-0.001116
0.930000	0.000000	0.000000	0.000000	0.000000	0.000000	0.000000	-1.072045	172.705139	9.448106	0.391877	-0.002924	0.207196	0.000000	0.000000	0.000000	-0.000124	-0.017891	0.000318
0.940000	0.000000	0.000000	0.000000	0.000000	0.000000	0.000000	1.981347	163.443298	9.922132	0.396574	-0.002696	0.206641	0.000000	0.000000	0.000000	-0.000768	-0.110824	0.001971
0.950000	0.000000	0.000000	0.000000	0.000000	0.000000	0.000000	4.521461	158.433853	10.064935	0.400904	-0.002417	0.206460	0.000000	0.000000	0.000000	-0.001477	-0.213252	0.003793
0.960000	0.000000	0.000000	0.000000	0.000000	0.000000	0.000000	6.642781	157.609299	9.975380	0.404912	-0.002114	0.206679	0.000000	0.000000	0.000000	-0.002215	-0.319776	0.005688
0.970000	0.000000	0.000000	0.000000	0.000000	0.000000	0.000000	8.478674	160.844131	9.719965	0.408655	-0.001832	0.207284	0.000000	0.000000	0.000000	-0.002947	-0.425475	0.007569
0.980000	0.000000	0.000000	0.000000	0.000000	0.000000	0.000000	10.176361	167.948502	9.292032	0.412180	-0.001618	0.208229	0.000000	0.000000	0.000000	-0.003675	-0.530591	0.009438
0.990000	0.000000	0.000000	0.000000	0.000000	0.000000	0.000000	11.884836	178.614655	8.599910	0.415505	-0.001514	0.209447	0.000000	0.000000	0.000000	-0.004458	-0.643572	0.011448
1.000000	0.000000	0.000000	0.000000	0.000000	0.000000	0.000000	13.762607	192.365540	7.547852	0.418624	-0.001537	0.210857	0.000000	0.000000	0.000000	-0.005362	-0.774162	0.013771
1.010000	0.000000	0.000000	0.000000	0.000000	0.000000	0.000000	15.974201	208.539139	6.119684	0.421506	-0.001673	0.212373	0.000000	0.000000	0.000000	-0.006414	-0.925964	0.016472
1.020000	0.000000	0.000000	0.000000	0.000000	0.000000	0.000000	18.687084	226.296127	4.393840	0.424112	-0.001883	0.213913	0.000000	0.000000	0.000000	-0.007587	-1.095363	0.019485
1.030000	0.000000	0.000000	0.000000	0.000000	0.000000	0.000000	22.065123	244.659210	2.538713	0.426422	-0.002123	0.215415	0.000000	0.000000	0.000000	-0.008808	-1.271663	0.022621
1.040000	0.000000	0.000000	0.000000	0.000000	0.000000	0.000000	26.233982	262.570190	0.790551	0.428448	-0.002364	0.216831	0.000000	0.000000	0.000000	-0.009955	-1.437317	0.025568
1.050000	0.000000	0.000000	0.000000	0.000000	0.000000	0.000000	31.217316	278.945343	-0.576026	0.430227	-0.002597	0.218125	0.000000	0.000000	0.000000	-0.010871	-1.569488	0.027919
1.060000	0.000000	0.000000	0.000000	0.000000	0.000000	0.000000	36.900764	292.710052	-1.300741	0.431807	-0.002821	0.219271	0.000000	0.000000	0.000000	-0.011379	-1.642876	0.029224
1.070000	0.000000	0.000000	0.000000	0.000000	0.000000	0.000000	43.029392	302.838928	-1.204943	0.433227	-0.003035	0.220253	0.000000	0.000000	0.000000	-0.011328	-1.635533	0.029094
1.080000	0.000000	0.000000	0.000000	0.000000	0.000000	0.000000	49.235226	308.392853	-0.256864	0.434523	-0.003228	0.221070	0.000000	0.000000	0.000000	-0.010641	-1.536234	0.027327
1.090000	0.000000	0.000000	0.000000	0.000000	0.000000	0.000000	55.081974	308.582886	1.404729	0.435731	-0.003378	0.221734	0.000000	0.000000	0.000000	-0.009343	-1.348868	0.023994
1.100000	0.000000	0.000000	0.000000	0.000000	0.000000	0.000000	60.104572	302.833374	3.493904	0.436900	-0.003458	0.222273	0.000000	0.000000	0.000000	-0.007573	-1.093305	0.019448
1.110000	0.000000	0.000000	0.000000	0.000000	0.000000	0.000000	63.839523	290.843475	5.641002	0.438059	-0.003446	0.222728	0.000000	0.000000	0.000000	-0.005545	-0.800556	0.014241
1.120000	0.000000	0.000000	0.000000	0.000000	0.000000	0.000000	65.857124	272.623169	7.473103	0.439190	-0.003321	0.223168	0.000000	0.000000	0.000000	-0.003507	-0.506372	0.009008
1.130000	0.000000	0.000000	0.000000	0.000000	0.000000	0.000000	65.801262	248.527466	8.690628	0.440185	-0.003060	0.223688	0.000000	0.000000	0.000000	-0.001693	-0.244388	0.004347
1.140000	0.000000	0.000000	0.000000	0.000000	0.000000	0.000000	63.423901	219.314407	9.131831	0.440828	-0.002633	0.224395	0.000000	0.000000	0.000000	-0.000270	-0.038941	0.000693
1.150000	0.000000	0.000000	0.000000	0.000000	0.000000	0.000000	58.636909	186.219284	8.793339	0.440791	-0.001993	0.225387	0.000000	0.000000	0.000000	0.000685	0.098920	-0.001760
1.160000	0.000000	0.000000	0.000000	0.000000	0.000000	0.000000	51.579903	150.996582	7.808125	0.439664	-0.001086	0.226713	0.000000	0.000000	0.000000	0.001187	0.171367	-0.003048
